<?xml version="1.0" encoding="UTF-8"?><svg xmlns="http://www.w3.org/2000/svg" xmlns:xlink="http://www.w3.org/1999/xlink" height="466.4" preserveAspectRatio="xMidYMid meet" version="1.0" viewBox="0.0 0.0 500.0 466.4" width="500.0" zoomAndPan="magnify"><defs><clipPath id="a"><path d="M 0 0 L 500 0 L 500 466.378906 L 0 466.378906 Z M 0 0"/></clipPath></defs><g><g id="change1_1"><path d="M 434.894531 324.414062 C 419.390625 333.714844 402.03125 338.609375 384.15625 340.820312 C 378.480469 310.890625 366.542969 279.710938 356.484375 256.558594 C 364.230469 246.398438 371.675781 236.011719 378.734375 225.359375 C 383.164062 218.675781 387.777344 211.597656 392.324219 204.214844 C 409.199219 212.808594 424.972656 222.804688 439.078125 234.367188 C 473.980469 262.976562 476.015625 299.742188 434.894531 324.414062 Z M 360.519531 413.085938 C 329.308594 438.699219 279.511719 419.167969 251.132812 399.292969 C 245.929688 395.648438 240.957031 391.734375 236.160156 387.625 C 250.027344 374.53125 262.933594 360.941406 274.539062 348.792969 C 301.890625 352.824219 328.535156 354.882812 352.996094 354.882812 C 360.769531 354.882812 368.910156 354.53125 377.171875 353.734375 C 380.597656 376.878906 377.765625 398.933594 360.519531 413.085938 Z M 106.882812 414.59375 C 94.050781 387.570312 108.199219 345.207031 126.175781 307.234375 C 139.335938 313.03125 153.046875 318.316406 167.101562 323.085938 C 180.839844 346.484375 196.777344 368.742188 215.152344 387.273438 C 169.589844 425.097656 123.601562 449.816406 106.882812 414.59375 Z M 77.65625 265.230469 C 48.378906 245.703125 18.554688 215.808594 56.820312 188.390625 C 69.945312 178.984375 85.527344 172.652344 102.0625 168.40625 C 108.992188 191.628906 116.730469 212.085938 121.375 224.511719 C 125.9375 236.714844 131.101562 249.738281 136.914062 263.101562 C 133.890625 268.761719 130.960938 274.414062 128.128906 280.039062 C 126.707031 282.863281 124.910156 286.445312 122.878906 290.605469 C 107.085938 283.15625 91.917969 274.746094 77.65625 265.230469 Z M 129.042969 40.824219 C 177.203125 40.824219 218.652344 69.152344 253.128906 108.234375 C 239.339844 120.601562 226.316406 134.089844 214.050781 148.34375 C 197.578125 147.835938 181.222656 148.109375 165.167969 149.160156 C 149.066406 150.214844 130.835938 151.226562 112.703125 153.851562 C 98.308594 106.320312 85.722656 40.824219 129.042969 40.824219 Z M 349.785156 241.640625 C 339.507812 219.378906 328.5 197.238281 316.050781 175.996094 C 336.949219 181.386719 357.414062 188.25 376.71875 196.796875 C 367.820312 213.078125 358.347656 228.535156 349.785156 241.640625 Z M 261.535156 118.128906 C 271.417969 130.210938 280.679688 143.117188 289.320312 156.382812 C 270.023438 152.78125 250.507812 150.40625 231.0625 149.152344 C 231.519531 148.679688 231.96875 148.199219 232.425781 147.726562 C 241.347656 138.480469 251.082031 128.246094 261.535156 118.128906 Z M 146.070312 246.449219 C 139.382812 229.824219 133.289062 213.238281 127.496094 197.242188 C 125.25 191.046875 120.914062 179.453125 116.296875 165.285156 C 140.0625 160.878906 164.882812 160.019531 186.648438 160.019531 C 192.363281 160.019531 198.179688 160.125 204.0625 160.316406 C 182.121094 187.460938 162.796875 216.90625 146.070312 246.449219 Z M 156.957031 304.902344 C 148.582031 301.796875 140.332031 298.453125 132.222656 294.875 C 135.628906 288.125 139.070312 281.597656 142.417969 275.414062 C 146.910156 285.203125 151.753906 295.09375 156.957031 304.902344 Z M 176.601562 311.707031 C 167.167969 294.78125 158.859375 277.066406 151.332031 259.226562 C 154.921875 252.789062 158.191406 246.984375 160.898438 242.023438 C 177 212.492188 197.351562 185.871094 219.929688 161.066406 C 245.742188 162.671875 272.609375 166.191406 299.101562 171.96875 C 315.96875 199.839844 330.152344 228.488281 341.59375 253.882812 C 333.570312 265.585938 327.023438 274.257812 323.582031 278.214844 C 316.835938 285.964844 297.195312 308.535156 272.191406 334.058594 C 240.148438 329.003906 207.761719 321.792969 176.601562 311.707031 Z M 187.132812 329.472656 C 211.042969 336.609375 235.613281 342.289062 259.84375 346.449219 C 249.03125 357.113281 237.527344 367.953125 225.835938 378.167969 C 211.117188 363.761719 198.367188 347.242188 187.132812 329.472656 Z M 352.148438 278.105469 C 359.054688 294.476562 369.476562 318.0625 374.894531 341.734375 C 358.933594 342.917969 342.746094 342.222656 327.265625 340.828125 C 313.925781 339.625 300.351562 338.101562 286.667969 336.203125 C 308.011719 314.371094 328.679688 291.703125 347.738281 267.785156 C 349.265625 271.3125 350.742188 274.761719 352.148438 278.105469 Z M 370.269531 59.570312 C 432.558594 59.570312 413.761719 125.253906 382.980469 185.007812 C 358.480469 174.125 332.617188 165.800781 306.160156 159.839844 C 295.554688 143.242188 283.914062 127.347656 270.835938 112.570312 C 270.324219 111.992188 269.800781 111.402344 269.265625 110.804688 C 298.410156 83.816406 332.660156 59.570312 370.269531 59.570312 Z M 435.597656 213.96875 C 423.972656 206.121094 411.789062 199.046875 399.1875 192.6875 C 415.171875 164.832031 428.429688 133.546875 426.371094 102.992188 C 422.585938 46.820312 368.4375 37.722656 324.691406 59.113281 C 301.871094 70.273438 280.574219 84.746094 260.78125 101.558594 C 226.992188 65.652344 164.183594 9.574219 117.898438 26.765625 C 77 41.953125 84.257812 103.59375 98.597656 156.257812 C 76.457031 160.667969 55.339844 168.1875 39.421875 181.941406 C 2.867188 213.523438 34.558594 251.984375 65.136719 273.460938 C 80.675781 284.375 98.175781 294.246094 116.960938 303.046875 C 93.933594 352.769531 58.550781 446.359375 126.996094 446.363281 C 161.644531 446.363281 195.59375 423.96875 225.683594 397.230469 C 252.902344 421.292969 285.058594 436.980469 322.84375 436.980469 C 380.660156 436.980469 391.984375 397.761719 386.070312 352.691406 C 417.445312 348.386719 449.28125 336.964844 468.296875 312.109375 C 497.644531 273.753906 469.28125 236.699219 435.597656 213.96875" fill="#86aadf"/></g><g id="change2_1"><path d="M 297.054688 243.035156 C 294.523438 265.179688 274.792969 281.863281 253.878906 286.925781 C 230.734375 292.527344 209.0625 274.410156 204.058594 252.386719 C 200.203125 235.414062 206.015625 218.835938 218.027344 207.523438 C 227.9375 190.144531 254.988281 187.5625 271.824219 195.355469 C 289.589844 203.582031 299.230469 223.980469 297.054688 243.035156" fill="#f46a61"/></g><g clip-path="url(#a)" id="change3_1"><path d="M 435.863281 257.1875 C 428.265625 256.445312 422.246094 257.726562 415.191406 253.550781 C 408.605469 249.648438 405.167969 243.898438 402.054688 237.132812 C 401.464844 235.847656 399.421875 236.519531 399.453125 237.839844 C 399.648438 246.265625 405.8125 253.535156 412.734375 257.753906 C 419.039062 261.601562 430.058594 264.929688 436.660156 260.132812 C 437.960938 259.191406 437.46875 257.34375 435.863281 257.1875 Z M 293.949219 283.425781 C 284.507812 286.886719 276.40625 292.847656 266.539062 295.601562 C 256.0625 298.523438 245.734375 298.449219 234.980469 298.449219 C 233.0625 298.449219 232.660156 301.285156 234.527344 301.796875 C 245.3125 304.761719 257.257812 303.582031 267.953125 300.738281 C 277.628906 298.164062 289.394531 293.824219 295.597656 285.570312 C 296.351562 284.566406 295.09375 283.007812 293.949219 283.425781 Z M 186.570312 1.816406 C 179.945312 -0.625 168.914062 -1.390625 163.90625 4.621094 C 163.324219 5.320312 163.648438 6.597656 164.703125 6.550781 C 168.242188 6.398438 171.566406 5.03125 175.144531 4.964844 C 179.519531 4.890625 184.027344 6.003906 187.855469 8.121094 C 194.015625 11.53125 196.570312 21.140625 203.539062 22.480469 C 204.90625 22.742188 205.753906 21.492188 205.230469 20.277344 C 201.875 12.449219 194.640625 4.785156 186.570312 1.816406 Z M 129.027344 53.792969 C 118.480469 55.324219 111.21875 68.769531 108.828125 78.035156 C 106.65625 86.457031 105.824219 102.863281 114.652344 108.003906 C 115.835938 108.691406 117.371094 107.8125 117.371094 106.441406 C 117.367188 102.386719 115.207031 98.671875 114.460938 94.695312 C 113.527344 89.738281 113.769531 84.613281 114.949219 79.722656 C 116.070312 75.0625 118.003906 70.625 120.8125 66.730469 C 123.632812 62.820312 127.613281 60.164062 130.589844 56.472656 C 131.636719 55.175781 130.644531 53.558594 129.027344 53.792969 Z M 494.625 262.820312 C 493.746094 261.066406 491.105469 262.3125 491.546875 264.117188 C 494.699219 277.007812 496.066406 289.613281 492.804688 302.664062 C 491.304688 308.675781 488.984375 314.429688 485.921875 319.8125 C 482.773438 325.351562 478.300781 329.980469 475.140625 335.472656 C 474.367188 336.8125 475.886719 338.203125 477.191406 337.523438 C 488.851562 331.441406 495.4375 315.265625 498.175781 303.148438 C 501.167969 289.925781 500.808594 275.109375 494.625 262.820312 Z M 437.105469 57.472656 C 426.542969 43.1875 409.855469 33.828125 392.171875 32.363281 C 390.660156 32.238281 390.371094 34.632812 391.816406 34.988281 C 408.597656 39.113281 425.035156 47.277344 434.742188 62.144531 C 440.121094 70.382812 442.644531 79.839844 443.542969 89.566406 C 444.398438 98.871094 442.15625 109.03125 444.089844 118.078125 C 444.425781 119.652344 446.558594 119.386719 447.023438 118.078125 C 450.433594 108.460938 449.230469 94.933594 447.851562 84.960938 C 446.480469 75.035156 443.089844 65.558594 437.105469 57.472656 Z M 369.339844 438.316406 C 358.722656 443.441406 348.761719 449.023438 337.039062 451.324219 C 325.121094 453.660156 312.640625 453.269531 300.824219 450.574219 C 298.675781 450.082031 297.835938 453.167969 299.917969 453.863281 C 322.359375 461.34375 354.007812 458.742188 371.109375 440.609375 C 372.28125 439.367188 370.8125 437.605469 369.339844 438.316406 Z M 270.273438 448.804688 C 263.289062 444.570312 255.570312 441.875 248.753906 437.269531 C 241.4375 432.328125 235.796875 425.9375 229.101562 420.324219 C 228.117188 419.5 226.746094 420.511719 227.328125 421.695312 C 234.203125 435.699219 253.914062 450.042969 269.566406 451.40625 C 271.007812 451.53125 271.382812 449.476562 270.273438 448.804688 Z M 112.996094 460.742188 C 93.59375 461.539062 79.457031 451.207031 74 432.390625 C 68.28125 412.648438 73.59375 392.417969 71.976562 372.386719 C 71.839844 370.695312 69.234375 370.074219 68.828125 371.957031 C 66.179688 384.265625 65.472656 397.652344 65.34375 410.21875 C 65.238281 420.925781 66.410156 431.644531 70.703125 441.542969 C 77.285156 456.726562 96.429688 473.332031 113.703125 463.347656 C 114.871094 462.671875 114.402344 460.6875 112.996094 460.742188 Z M 28.910156 263.953125 C 29.917969 264.851562 29.09375 266.546875 27.835938 266.550781 C 15.691406 266.574219 6.96875 252.878906 3.308594 242.796875 C -2.46875 226.867188 0.417969 209.898438 3.6875 193.789062 C 4.105469 191.730469 7.566406 192.199219 7.359375 194.285156 C 5.960938 208.375 3.890625 223.65625 7.917969 237.484375 C 9.660156 243.46875 12.640625 249.21875 16.777344 253.902344 C 20.3125 257.90625 24.957031 260.449219 28.910156 263.953125" fill="#2e2e30"/></g><g id="change4_1"><path d="M 178.269531 202.527344 C 172.582031 199.300781 165.964844 196.988281 159.5 199.15625 C 156.800781 200.058594 153.675781 202.054688 152.023438 204.640625 C 147.542969 210.449219 147.039062 219.785156 149.894531 227.09375 C 155.351562 241.0625 168.1875 242.125 179.363281 233.71875 C 184.785156 229.640625 189.304688 223.871094 189.105469 216.757812 C 188.914062 209.894531 183.800781 205.667969 178.269531 202.527344 Z M 452.496094 213.464844 C 433.40625 188.445312 396.679688 217.828125 412.949219 239.335938 C 427.976562 259.203125 470.164062 236.617188 452.496094 213.464844 Z M 189.753906 56.949219 C 178.515625 66.085938 160.078125 68.839844 153.144531 52.96875 C 149.480469 44.578125 151.710938 36.253906 157.035156 30.28125 C 163.320312 17.371094 177.511719 11.308594 190.730469 21.203125 C 203.484375 30.75 201.496094 47.398438 189.753906 56.949219" fill="#f6b737"/></g><g id="change5_1"><path d="M 172.519531 204.742188 C 171.191406 204.679688 170.269531 206.617188 171.371094 207.511719 C 173.925781 209.585938 176.546875 210.925781 178.105469 214.023438 C 179.460938 216.722656 179.140625 219.863281 180.378906 222.503906 C 180.675781 223.136719 181.574219 223.144531 182.023438 222.714844 C 184.863281 220 183.414062 214.855469 181.808594 211.859375 C 179.996094 208.488281 176.554688 204.925781 172.519531 204.742188 Z M 431.503906 213.1875 C 432.210938 212.597656 431.839844 211.269531 430.953125 211.09375 C 416.078125 208.109375 407.660156 238.277344 426.394531 238.308594 C 427.511719 238.308594 427.90625 237.011719 427.25 236.238281 C 425.953125 234.703125 424.3125 233.714844 422.914062 232.304688 C 420.210938 229.578125 420.457031 225.609375 422.101562 222.339844 C 424.289062 217.980469 427.964844 216.15625 431.503906 213.1875 Z M 168.835938 24.789062 C 162.804688 28.769531 157.480469 33.808594 157.769531 41.644531 C 157.945312 46.351562 161.109375 54.074219 166.953125 52.824219 C 167.855469 52.632812 168.105469 51.589844 167.753906 50.863281 C 165.878906 47.003906 162.453125 45.253906 162.621094 40.316406 C 162.800781 35.160156 166.542969 29.925781 170.179688 26.53125 C 171.089844 25.683594 169.894531 24.089844 168.835938 24.789062 Z M 270.664062 267.890625 C 266.082031 268.390625 261.855469 270.554688 257.316406 271.480469 C 251.742188 272.621094 246.078125 272.925781 240.414062 272.539062 C 238.757812 272.429688 238.390625 275.097656 240.019531 275.445312 C 249.589844 277.488281 264.167969 277.929688 271.769531 270.554688 C 272.667969 269.683594 272.050781 267.738281 270.664062 267.890625 Z M 232.054688 206.601562 C 225.257812 215.230469 221.121094 225.609375 219.558594 236.445312 C 218.742188 242.109375 218.082031 248.324219 219.839844 253.875 C 221.539062 259.257812 225.785156 263.066406 228.773438 267.699219 C 229.472656 268.777344 228.320312 269.878906 227.242188 269.691406 C 213.675781 267.347656 211.699219 249.757812 213.140625 238.816406 C 214.882812 225.59375 219.339844 212.617188 230.410156 204.472656 C 231.769531 203.472656 232.910156 205.515625 232.054688 206.601562" fill="#fff"/></g></g></svg>