<?xml version="1.0" encoding="UTF-8"?><svg xmlns="http://www.w3.org/2000/svg" xmlns:xlink="http://www.w3.org/1999/xlink" height="252.9" preserveAspectRatio="xMidYMid meet" version="1.1" viewBox="116.3 85.8 192.7 252.9" width="192.7" zoomAndPan="magnify">
 <g id="surface1">
  <g id="change1_1"><path d="m303.43 227.48h-181.66c-3.04 0-5.51 2.47-5.51 5.51v100.2c0 3.04 2.47 5.51 5.51 5.51h181.66c3.05 0 5.51-2.47 5.51-5.51v-100.2c0-3.04-2.46-5.51-5.51-5.51" fill="#ed547c"/></g>
  <g id="change2_1"><path d="m122.52 332.76h180.66l-0.44-89.33h-179.94l-0.28 89.33" fill="#496592"/></g>
  <g id="change3_1"><path d="m212.77 332.32c-24.84-24.85-65.12-24.85-89.97 0v-104.85c24.85-24.84 65.13-24.84 89.97 0v104.85" fill="#98b7e4"/></g>
  <g id="change4_1"><path d="m212.77 332.32c0-26.92-50.25-51.06-75.09-26.21v-104.85c24.84-24.84 72.26 2.84 75.09 26.21v104.85" fill="#b9d8f2"/></g>
  <g id="change3_2"><path d="m302.74 332.32c-24.85-24.85-65.13-24.85-89.97 0v-104.85c24.84-24.84 65.12-24.84 89.97 0v104.85" fill="#98b7e4"/></g>
  <path d="m2260.6 1927.6s318.8 184.2 651.7-14.2" fill="none" stroke="#496592" stroke-linecap="round" stroke-linejoin="round" stroke-miterlimit="10" stroke-width="37.705" transform="matrix(.1 0 0 -.1 0 425.2)"/>
  <path d="m2260.6 1785.9s318.8 184.2 651.7-14.1" fill="none" stroke="#496592" stroke-linecap="round" stroke-linejoin="round" stroke-miterlimit="10" stroke-width="37.705" transform="matrix(.1 0 0 -.1 0 425.2)"/>
  <path d="m2260.6 1644.3s318.8 184.1 651.7-14.2" fill="none" stroke="#496592" stroke-linecap="round" stroke-linejoin="round" stroke-miterlimit="10" stroke-width="37.705" transform="matrix(.1 0 0 -.1 0 425.2)"/>
  <path d="m2260.6 1502.5s318.8 184.3 651.7-14.1" fill="none" stroke="#496592" stroke-linecap="round" stroke-linejoin="round" stroke-miterlimit="10" stroke-width="37.705" transform="matrix(.1 0 0 -.1 0 425.2)"/>
  <path d="m2260.6 1360.9s318.8 184.2 651.7-14.2" fill="none" stroke="#496592" stroke-linecap="round" stroke-linejoin="round" stroke-miterlimit="10" stroke-width="37.705" transform="matrix(.1 0 0 -.1 0 425.2)"/>
  <path d="m2260.6 1219.2s318.8 184.2 651.7-14.2" fill="none" stroke="#496592" stroke-linecap="round" stroke-linejoin="round" stroke-miterlimit="10" stroke-width="37.705" transform="matrix(.1 0 0 -.1 0 425.2)"/>
  <g id="change5_1"><path d="m263.44 141.3c0-30.71-25.25-55.515-56.13-54.784-29.86 0.707-53.87 25.664-53.47 55.534 0.21 15.79 7.11 29.97 17.98 39.83 8.75 7.94 13.93 19.05 13.93 30.86v12.5h45.78v-12.15c0-11.98 5.24-23.27 14.08-31.35 10.96-10.01 17.83-24.42 17.83-40.44" fill="#f8dd4e"/></g>
  <g id="change6_1"><path d="m176.04 123.15c-4.27 6.07-10.31 9.17-13.5 6.93-3.18-2.24-2.31-8.98 1.96-15.05s10.32-9.17 13.51-6.93c3.18 2.24 2.31 8.98-1.97 15.05" fill="#fff"/></g>
  <path d="m2002.5 2000.2l-128.4 651.1" fill="none" stroke="#496592" stroke-linecap="round" stroke-linejoin="round" stroke-miterlimit="10" stroke-width="33.595" transform="matrix(.1 0 0 -.1 0 425.2)"/>
  <path d="m2176.4 2000.2l128.5 651.1" fill="none" stroke="#496592" stroke-linecap="round" stroke-linejoin="round" stroke-miterlimit="10" stroke-width="33.595" transform="matrix(.1 0 0 -.1 0 425.2)"/>
  <g id="change2_3"><path d="m231.29 247.82h-45.43l-0.18-22.58h45.78l-0.17 22.58" fill="#496592"/></g>
  <g id="change2_2"><path d="m186.03 247.91c1.19 5.59 6.13 9.59 11.85 9.59h21.38c5.72 0 10.66-4 11.86-9.59h-45.09" fill="#496592"/></g>
  <path d="m1897.4 2533l104.4 118.3 87.3-127.7 107.5 127.7 85-118.3" fill="none" stroke="#496592" stroke-linecap="round" stroke-linejoin="round" stroke-miterlimit="10" stroke-width="33.595" transform="matrix(.1 0 0 -.1 0 425.2)"/>
 </g>
</svg>